<?xml version="1.0" encoding="UTF-8"?>
<!DOCTYPE svg PUBLIC "-//W3C//DTD SVG 1.1//EN" "http://www.w3.org/Graphics/SVG/1.1/DTD/svg11.dtd">
<!-- Creator: CorelDRAW X7 -->
<svg xmlns="http://www.w3.org/2000/svg" xml:space="preserve" width="210mm" height="297mm" version="1.1" style="shape-rendering:geometricPrecision; text-rendering:geometricPrecision; image-rendering:optimizeQuality; fill-rule:evenodd; clip-rule:evenodd"
viewBox="0 0 21000 29700"
 xmlns:xlink="http://www.w3.org/1999/xlink">
 <defs>
  <style type="text/css">
   <![CDATA[
    .fil3 {fill:#282D2D;fill-rule:nonzero}
    .fil0 {fill:#28ADB7;fill-rule:nonzero}
    .fil1 {fill:#ED1C23;fill-rule:nonzero}
    .fil2 {fill:white;fill-rule:nonzero}
   ]]>
  </style>
 </defs>
 <g id="Слой_x0020_1">
  <metadata id="CorelCorpID_0Corel-Layer"/>
  <g id="_878087008">
   <polygon class="fil0" points="7356,14583 7356,16068 9254,16068 9254,14002 "/>
   <polygon class="fil1" points="12060,14004 12060,16068 13958,16068 13958,14585 "/>
   <path class="fil0" d="M10657 8736c-1820,0 -3301,1421 -3301,3168l0 2506 1898 -581 0 -1925c0,-701 629,-1270 1403,-1270l0 0 0 -1898 0 0z"/>
   <path class="fil1" d="M12060 11904l0 1928 1898 581 0 -2509c0,-1747 -1481,-3168 -3301,-3168l0 0 0 1898 0 0c774,0 1403,569 1403,1270z"/>
   <path class="fil2" d="M8330 14719c98,0 185,25 261,76l-40 88c-69,-46 -144,-69 -226,-69 -54,0 -96,9 -128,29 -31,19 -47,46 -47,80 0,33 11,60 34,82 22,22 51,38 85,49 35,10 72,22 112,36 40,14 77,28 111,43 34,15 62,39 85,71 22,32 34,72 34,118 0,68 -28,123 -82,164 -55,41 -127,61 -215,61 -59,0 -116,-11 -171,-34 -56,-22 -104,-53 -143,-91l42 -85c37,37 80,66 129,86 49,20 97,30 144,30 60,0 106,-11 141,-34 34,-22 52,-53 52,-92 0,-29 -9,-54 -26,-74 -16,-21 -38,-36 -65,-48 -27,-11 -57,-22 -90,-32 -33,-9 -66,-20 -99,-31 -33,-11 -63,-25 -90,-41 -27,-16 -50,-39 -66,-67 -17,-29 -26,-63 -26,-103 0,-64 26,-115 78,-154 52,-39 121,-58 206,-58z"/>
   <polygon class="fil2" points="13351,15535 13254,15535 12761,14875 12761,15535 12668,15535 12668,14713 12765,14713 13258,15374 13258,14713 13351,14713 "/>
   <polygon class="fil3" points="7599,19745 7460,19745 6744,18758 6744,19745 6608,19745 6608,18516 6749,18516 7465,19504 7465,18516 7599,18516 "/>
   <polygon class="fil3" points="8536,18651 7863,18651 7863,19055 8464,19055 8464,19190 7863,19190 7863,19611 8558,19611 8558,19745 7727,19745 7727,18516 8536,18516 "/>
   <polygon class="fil3" points="9580,18651 9190,18651 9190,19745 9053,19745 9053,18651 8665,18651 8665,18516 9580,18516 "/>
   <polygon class="fil3" points="10985,19745 10845,19745 10523,18709 10198,19745 10058,19745 9659,18516 9806,18516 10133,19582 10457,18518 10593,18516 10920,19582 11244,18516 11385,18516 "/>
   <path class="fil3" d="M11923 18646c-134,0 -248,47 -344,141 -95,95 -143,209 -143,344 0,134 48,249 143,343 96,95 210,143 344,143 133,0 247,-48 342,-143 95,-94 142,-209 142,-343 0,-135 -47,-249 -142,-344 -95,-94 -209,-141 -342,-141zm0 -133c174,0 322,59 442,179 122,119 182,265 182,439 0,173 -60,320 -182,440 -120,121 -268,181 -442,181 -174,0 -323,-60 -443,-181 -121,-120 -182,-267 -182,-440 0,-174 61,-320 182,-439 120,-120 269,-179 443,-179z"/>
   <path class="fil3" d="M12815 19222l317 0c109,0 193,-25 251,-74 59,-49 88,-121 88,-216 0,-92 -29,-162 -88,-209 -58,-48 -142,-72 -251,-72l-317 0 0 571zm644 523l-247 -392c-34,3 -61,4 -80,4l-317 0 0 388 -136 0 0 -1229 453 0c148,0 264,36 347,108 82,72 123,174 123,305 0,100 -23,184 -69,252 -46,68 -112,117 -198,146l279 418 -155 0z"/>
   <polygon class="fil3" points="14540,19745 14100,19162 13868,19424 13868,19745 13732,19745 13732,18516 13868,18516 13868,19223 14509,18516 14671,18516 14199,19050 14707,19745 "/>
   <polygon class="fil3" points="7679,16741 7679,17022 8077,17022 8077,18281 8360,18281 8360,17022 8809,17022 8809,16741 "/>
   <path class="fil3" d="M9485 16742l0 886c0,122 -30,212 -93,277 -62,64 -148,95 -262,95 -115,0 -201,-31 -265,-96 -64,-65 -95,-155 -95,-276l0 -478 -282 0 0 478c0,201 58,362 172,478 115,116 273,175 470,175 196,0 353,-59 466,-175 114,-116 171,-277 171,-478l0 -886 -282 0z"/>
   <path class="fil3" d="M10515 18002l-337 0 0 -980 332 0c138,0 252,46 347,140 95,95 142,209 142,351 0,142 -46,256 -139,350 -94,94 -206,139 -345,139zm546 -1040c-147,-147 -331,-221 -548,-221l-618 0 0 1540 613 0c219,0 404,-74 552,-221 148,-147 223,-332 223,-549 0,-217 -75,-402 -222,-549z"/>
   <polygon class="fil3" points="11694,18002 11694,17642 12387,17642 12387,17362 11694,17362 11694,17022 12470,17022 12470,16741 11412,16741 11412,18281 12495,18281 12495,18002 "/>
   <polygon class="fil3" points="13861,17150 13581,17150 13583,17748 12854,16741 12597,16741 12597,18281 12879,18281 12879,17275 13609,18281 13864,18281 "/>
   <polygon class="fil3" points="13583,16741 13583,17022 13992,17022 13992,18281 14274,18281 14274,17022 14704,17022 14704,16741 "/>
   <path class="fil3" d="M7707 17592c-44,-65 -101,-114 -168,-144 -59,-27 -123,-52 -190,-76 -68,-24 -131,-45 -189,-63 -48,-16 -87,-38 -118,-69 -26,-26 -38,-57 -38,-97 0,-37 15,-64 50,-85 30,-19 69,-31 116,-37l0 0 2 0c4,0 7,0 10,-1l368 0 0 -280 -166 0c0,0 0,0 -1,0l-276 0c-96,16 -179,50 -246,102 -103,79 -155,185 -155,315 0,80 17,150 50,208 34,58 79,105 133,138 49,30 104,55 163,76 55,20 112,38 167,55 53,17 101,34 144,53 36,15 64,36 86,63 19,24 28,53 28,88 0,47 -19,81 -59,108 -46,32 -114,48 -200,48 -70,0 -142,-16 -216,-47 -74,-32 -140,-77 -197,-134l-62 -63 -129 265 32 32c72,71 159,129 259,171 100,42 205,63 311,63 161,0 295,-40 397,-119 108,-83 162,-195 162,-332 0,-91 -23,-172 -68,-238z"/>
  </g>
 </g>
</svg>
